<svg width="36" height="36" viewBox="0 0 36 36" fill="none" xmlns="http://www.w3.org/2000/svg">
<g clip-path="url(#clip0_10663_35608)">
<mask id="mask0_10663_35608" style="mask-type:alpha" maskUnits="userSpaceOnUse" x="0" y="0" width="36" height="36">
<path d="M36 18C36 8.05887 27.9411 0 18 0C8.05887 0 0 8.05887 0 18C0 27.9411 8.05887 36 18 36C27.9411 36 36 27.9411 36 18Z" fill="white"/>
</mask>
<g mask="url(#mask0_10663_35608)">
<path d="M36 0H0V36H36V0Z" fill="#DC971F"/>
<path d="M33.6682 5.41213C24.2949 -0.219937 12.1306 2.81296 6.49854 12.1863C0.866471 21.5596 3.89936 33.7239 13.2727 39.356C22.646 44.988 34.8103 41.9551 40.4424 32.5818C46.0744 23.2085 43.0415 11.0442 33.6682 5.41213Z" fill="#EFC456"/>
<path d="M7.96484 21.9121C7.94749 22.9065 8.45754 23.8694 9.38281 24.5889C10.3081 25.3084 11.5728 25.7257 12.8986 25.7488C14.2245 25.7719 15.503 25.3991 16.4528 24.7123C17.4026 24.0255 17.946 23.081 17.9633 22.0866" fill="#011C28"/>
<path d="M9.55263 16.9391C9.56227 16.3869 9.23435 15.9334 8.8202 15.9262C8.40605 15.9189 8.0625 16.3607 8.05286 16.9129C8.04322 17.4651 8.37114 17.9186 8.78529 17.9259C9.19944 17.9331 9.54299 17.4913 9.55263 16.9391Z" fill="#011C28"/>
<path d="M17.5507 17.0788C17.5603 16.5266 17.2324 16.0731 16.8182 16.0658C16.4041 16.0586 16.0605 16.5004 16.0509 17.0526C16.0413 17.6048 16.3692 18.0583 16.7833 18.0655C17.1975 18.0727 17.541 17.631 17.5507 17.0788Z" fill="#011C28"/>
</g>
</g>
<defs>
<clipPath id="clip0_10663_35608">
<rect width="36" height="36" fill="white"/>
</clipPath>
</defs>
</svg>
